<?xml version="1.0" encoding="utf-8"?>
<!-- Generator: Adobe Illustrator 23.0.1, SVG Export Plug-In . SVG Version: 6.00 Build 0)  -->
<svg version="1.1" id="Layer_1" xmlns="http://www.w3.org/2000/svg" xmlns:xlink="http://www.w3.org/1999/xlink" x="0px" y="0px"
	 width="100px" height="100px" viewBox="0 0 100 100" style="enable-background:new 0 0 100 100;" xml:space="preserve">
<style type="text/css">
	.st0{fill:#EC2027;}
	.st1{fill:#FFFFFF;}
</style>
<polygon class="st0" points="77.4,79 76.1,87.2 68.1,85.7 64.6,92.9 57.2,89.2 51.8,95.3 45.9,89.6 39,94 34.9,87 26.8,89 
	24.9,81.1 16.8,80.9 17,72.9 9.4,70.3 12,62.7 5.3,58.1 9.9,51.4 4.7,45.1 11.2,40.1 7.9,32.5 15.5,29.4 14.4,21.4 22.5,20.5 
	24,12.5 32,14 35.5,6.6 42.7,10.3 48.3,4.2 54.2,9.9 61.1,5.8 65.3,12.7 73.1,10.5 75,18.6 83.3,18.6 82.9,26.8 90.7,29.2 88.1,37 
	94.8,41.6 90,48.3 95.2,54.4 88.9,59.6 92.2,67 84.6,70.1 85.5,78.3 "/>
<g>
	<path class="st1" d="M33.6,47.6l3.4,9.7c0,0.2,0.2,0.5,0.3,0.7s0.2,0.5,0.3,0.7l-12-7.7c-0.2,0-0.2-0.2-0.3-0.2c-0.2,0-0.2,0-0.2,0
		s-0.2,0-0.3,0c-0.2,0-0.2,0-0.3,0.2L23,51.5l5.6,15.8l2.5-0.8l-3.4-9.7c0-0.2-0.2-0.3-0.2-0.7c-0.2-0.2-0.2-0.5-0.3-0.7l12,7.6
		c0.2,0.2,0.3,0.2,0.5,0.2s0.3,0,0.7-0.2l1.5-0.5l-5.8-16L33.6,47.6z"/>
	<polygon class="st1" points="47,58 45.5,53.4 50.9,51.5 50.2,49.1 44.6,51.2 43.1,46.8 50,44.2 49.2,42 39.3,45.6 44.9,61.4 
		54.8,57.8 54.1,55.4 	"/>
	<path class="st1" d="M73,33.5l-2.4,0.8c-0.2,0.2-0.5,0.2-0.5,0.3c0,0.2-0.2,0.3-0.2,0.5l0.7,10.4c0,0.2,0,0.5,0.2,0.8
		c0,0.3,0,0.5,0.2,0.8c-0.3-0.5-0.7-1-1-1.4l-6.5-8.3c-0.2-0.2-0.3-0.3-0.5-0.3s-0.5,0-0.7,0l-0.8,0.3c-0.2,0.2-0.5,0.2-0.5,0.5
		c-0.2,0.2-0.2,0.3-0.2,0.5l0.3,10.5c0,0.3,0,0.5,0,0.8s0,0.7,0.2,1c-0.2-0.3-0.3-0.5-0.5-0.8c-0.2-0.2-0.3-0.5-0.5-0.7L54.1,41
		c-0.2-0.2-0.3-0.3-0.5-0.3s-0.5,0-0.7,0l-2.5,0.8l10.5,14.1l2.7-1l-0.3-12.1c0-0.2,0-0.3,0-0.5s0-0.3,0-0.5
		c0.2,0.2,0.2,0.3,0.3,0.5c0.2,0.2,0.2,0.3,0.3,0.3l7.3,9.5l2.7-1L73,33.5z"/>
</g>
</svg>
