<?xml version="1.0" encoding="utf-8"?>
<!-- Generator: Adobe Illustrator 23.0.1, SVG Export Plug-In . SVG Version: 6.00 Build 0)  -->
<svg version="1.1" id="Layer_1" xmlns="http://www.w3.org/2000/svg" xmlns:xlink="http://www.w3.org/1999/xlink" x="0px" y="0px"
	 width="100px" height="100px" viewBox="0 0 100 100" style="enable-background:new 0 0 100 100;" xml:space="preserve">
<style type="text/css">
	.st0{fill:#AAAAAA;}
	.st1{fill:#FFFFFF;}
</style>
<polygon class="st0" points="77.4,79 76.1,87.2 68.1,85.7 64.6,92.9 57.2,89.2 51.8,95.3 45.9,89.6 39,94 34.9,87 26.8,89 
	24.9,81.1 16.8,80.9 17,72.9 9.4,70.3 12,62.7 5.3,58.1 9.9,51.4 4.7,45.1 11.2,40.1 7.9,32.5 15.5,29.4 14.4,21.4 22.5,20.5 
	24,12.5 32,14 35.5,6.6 42.7,10.3 48.3,4.2 54.2,9.9 61.1,5.8 65.3,12.7 73.1,10.5 75,18.6 83.3,18.6 82.9,26.8 90.7,29.2 88.1,37 
	94.8,41.6 90,48.3 95.2,54.4 88.9,59.6 92.2,67 84.6,70.1 85.5,78.3 "/>
<g>
	<path class="st1" d="M22.7,51.2c1,0.1,2.5,0.1,3.9-0.4c1.5-0.5,2.1-1.4,1.7-2.4c-0.3-0.9-1.2-1.2-3.1-1.2c-2.7,0-4.7-0.8-5.4-2.9
		c-0.9-2.5,0.5-5,3.9-6.2c1.6-0.6,2.9-0.6,3.9-0.6l0.2,2.9c-0.7-0.1-1.8-0.1-3.2,0.4c-1.4,0.5-1.9,1.4-1.6,2.1
		c0.3,0.9,1.3,1,3.4,1.1c2.9,0,4.5,1,5.2,3c0.8,2.4-0.3,5.1-4.2,6.5C25.8,54.1,24,54.2,23,54L22.7,51.2z"/>
	<path class="st1" d="M45.9,38.6c1.7,4.7-0.2,8.6-4.4,10c-4.3,1.5-7.9-0.9-9.3-4.9c-1.5-4.3,0.1-8.5,4.4-10
		C40.9,32.2,44.5,34.7,45.9,38.6z M35.5,42.5c1,2.8,3,4.3,5.2,3.6c2.2-0.8,2.7-3.3,1.7-6.1c-0.9-2.6-2.9-4.4-5.2-3.6
		C35.1,37.1,34.6,39.7,35.5,42.5z"/>
	<path class="st1" d="M45.5,30.8l3.3-1.1l4.1,11.6l5.7-2l1,2.7l-9,3.1L45.5,30.8z"/>
	<path class="st1" d="M56.5,27.2c1.1-0.6,2.6-1.3,4.3-1.8c2.7-1,4.7-1.1,6.4-0.5c1.9,0.6,3.4,2,4.3,4.6c1,2.7,0.6,5-0.3,6.7
		c-1.1,1.8-3.2,3.2-6,4.2c-1.7,0.6-2.9,0.9-3.8,1.1L56.5,27.2z M63.9,37.8c0.3,0,0.7-0.2,1.2-0.3c2.9-1,4.3-3.3,3.1-6.7
		c-1-3-3.3-4-6.1-3c-0.7,0.3-1.2,0.5-1.4,0.6L63.9,37.8z"/>
	<path class="st1" d="M47.6,62.8c1.7,4.7-0.2,8.6-4.4,10c-4.3,1.5-7.9-0.9-9.3-4.9c-1.5-4.3,0.1-8.5,4.4-10
		C42.6,56.3,46.2,58.8,47.6,62.8z M37.3,66.6c1,2.8,3,4.3,5.2,3.6c2.2-0.8,2.7-3.3,1.7-6.1c-0.9-2.6-2.9-4.4-5.2-3.6
		C36.8,61.3,36.3,63.8,37.3,66.6z"/>
	<path class="st1" d="M50.5,53.8l2.9,8.3c0.9,2.5,2.2,3.4,3.9,2.8s2.2-2.1,1.3-4.7L55.7,52l3.2-1.1l2.8,8.1c1.6,4.4,0.1,7.3-3.7,8.6
		c-3.6,1.3-6.5,0-8.1-4.6l-2.8-8L50.5,53.8z"/>
	<path class="st1" d="M65.5,51.6L61.7,53l-1-2.7l11-3.9l1,2.7l-3.9,1.4l4.1,11.6l-3.3,1.1L65.5,51.6z"/>
</g>
</svg>
