<svg xmlns="http://www.w3.org/2000/svg" viewBox="0 0 60 60">
<path fill="currentColor" d="M47.8,23c-0.1-1.8-0.4-3-0.8-4.1c-0.4-1.1-1.1-2.2-2-3c-0.9-0.9-1.9-1.5-3-2c-1.1-0.4-2.3-0.7-4.1-0.8
    C36,13,35.5,13,30.9,13s-5.2,0-7,0.1c-1.8,0.1-3,0.4-4.1,0.8c-1.1,0.4-2.2,1.1-3,2c-0.9,0.9-1.5,1.9-2,3C14.3,19.9,14,21.2,14,23
    c-0.1,1.8-0.1,2.4-0.1,7s0,5.2,0.1,7c0.1,1.8,0.4,3,0.8,4.1c0.4,1.1,1.1,2.2,2,3c0.9,0.9,1.9,1.5,3,2c1.1,0.4,2.3,0.7,4.1,0.8
    c1.8,0.1,2.4,0.1,7,0.1s5.2,0,7-0.1c1.8-0.1,3-0.4,4.1-0.8c2.3-0.9,4.1-2.7,5-5c0.4-1.1,0.7-2.3,0.8-4.1c0.1-1.8,0.1-2.4,0.1-7
    S47.8,24.8,47.8,23z M44.7,36.9c-0.1,1.7-0.4,2.6-0.6,3.2c-0.6,1.5-1.7,2.7-3.2,3.2c-0.6,0.2-1.5,0.5-3.2,0.6
    c-1.8,0.1-2.3,0.1-6.9,0.1s-5.1,0-6.9-0.1c-1.7-0.1-2.6-0.4-3.2-0.6c-0.7-0.3-1.4-0.7-2-1.3c-0.6-0.6-1-1.2-1.3-2
    c-0.2-0.6-0.5-1.5-0.6-3.2c-0.1-1.8-0.1-2.3-0.1-6.9s0-5.1,0.1-6.9c0.1-1.7,0.4-2.6,0.6-3.2c0.3-0.7,0.7-1.4,1.3-2
    c0.6-0.6,1.2-1,2-1.3c0.6-0.2,1.5-0.5,3.2-0.6c1.8-0.1,2.3-0.1,6.9-0.1c4.5,0,5.1,0,6.9,0.1c1.7,0.1,2.6,0.4,3.2,0.6
    c0.7,0.3,1.4,0.7,2,1.3c0.6,0.6,1,1.2,1.3,2c0.2,0.6,0.5,1.5,0.6,3.2c0.1,1.8,0.1,2.3,0.1,6.9S44.8,35.1,44.7,36.9z"/>
<path fill="currentColor" d="M30.9,21.3c-4.8,0-8.7,3.9-8.7,8.7s3.9,8.7,8.7,8.7c4.8,0,8.7-3.9,8.7-8.7S35.7,21.3,30.9,21.3z M30.9,35.7
    c-3.1,0-5.7-2.5-5.7-5.7s2.5-5.7,5.7-5.7c3.1,0,5.7,2.5,5.7,5.7S34,35.7,30.9,35.7z"/>
<path fill="currentColor" d="M42,20.9c0,1.1-0.9,2-2,2c-1.1,0-2-0.9-2-2c0-1.1,0.9-2,2-2C41.1,18.9,42,19.8,42,20.9z"/>
</svg>