<svg  xmlns="http://www.w3.org/2000/svg" x="0px" y="0px" width="40px" height="40px" viewBox="0 0 40 40">
<path fill="none" stroke="#231F20" d="M16.3,28.1h-1.1c-0.5,0-0.9-0.4-0.9-0.9L9.5,11.7 c0-0.5-2.2-0.9-6.8-0.9v1.6"/>
<line fill="none" stroke="#231F20" x1="25.3" y1="28.1" x2="21.6" y2="28.1"/>
<path fill="none" stroke="#231F20" d="M10.1,12.3h24.1c0.5,0,0.9,0.4,0.9,0.9l-2.5,13.9 c0,0.5-0.4,0.9-0.9,0.9h-1.1"/>
<circle fill="none" stroke="#231F20" cx="18.9" cy="29.2" r="2.6"/>
<circle fill="none" stroke="#231F20" cx="27.9" cy="29.2" r="2.6"/>
<line fill="none" stroke="#231F20" x1="15.9" y1="17.1" x2="30.7" y2="17.1"/>
<line fill="none" stroke="#231F20" x1="16.4" y1="19.7" x2="30.2" y2="19.7"/>
<line fill="none" stroke="#231F20" x1="17.5" y1="22.4" x2="29.6" y2="22.4"/>
</svg>
