<?xml version="1.0" encoding="utf-8"?>
<!-- Generator: Adobe Illustrator 23.0.1, SVG Export Plug-In . SVG Version: 6.00 Build 0)  -->
<svg version="1.1" id="Capa_1" xmlns="http://www.w3.org/2000/svg" xmlns:xlink="http://www.w3.org/1999/xlink" x="0px" y="0px"
	 width="30px" height="30px" viewBox="0 0 30 30" style="enable-background:new 0 0 30 30;" xml:space="preserve">
<path style="fill:#A4AAB4;" d="M19.1,20.1l1.2-1.9l2.1-0.7l0.2-2.2l1.6-1.6l-0.8-2.1l0.8-2.1L22.6,8l-0.2-2.2l-2.1-0.7l-1.2-1.9
	l-2.2,0.3L15,2.2l-1.9,1.2l-2.2-0.3L9.8,5.1L7.6,5.8L7.4,8L5.8,9.6l0.8,2.1l-0.8,2.1l1.6,1.6l0.2,2.2l2.1,0.7l1.2,1.9l2.2-0.3
	l1.9,1.2l1.9-1.2L19.1,20.1z M8.6,11.6c0-3.6,2.9-6.4,6.4-6.4s6.4,2.9,6.4,6.4s-2.9,6.4-6.4,6.4S8.6,15.2,8.6,11.6L8.6,11.6z"/>
<path style="fill:#A4AAB4;" d="M15,6.7c-2.7,0-5,2.2-5,5s2.2,5,5,5s5-2.2,5-5S17.7,6.7,15,6.7z"/>
<path style="fill:#A4AAB4;" d="M12.8,21.4l-2.6,0.3l-1.4-2.3l-0.5-0.2l-2,6.4l3.7-0.2l2.9,2.3l1.7-5.3L12.8,21.4z"/>
<path style="fill:#A4AAB4;" d="M21.2,19.5l-1.4,2.3l-2.6-0.3l-1.7,1.1l1.7,5.3l2.9-2.3l3.7,0.2l-2-6.4L21.2,19.5z"/>
</svg>
