<?xml version="1.0" encoding="utf-8"?>
<!-- Generator: Adobe Illustrator 23.0.1, SVG Export Plug-In . SVG Version: 6.00 Build 0)  -->
<svg version="1.1" id="Capa_1" xmlns="http://www.w3.org/2000/svg" xmlns:xlink="http://www.w3.org/1999/xlink" x="0px" y="0px"
	 width="100px" height="100px" viewBox="0 0 100 100" style="enable-background:new 0 0 100 100;" xml:space="preserve">
<path style="fill:#FFFFFF;" d="M57.7,62c5.2-2.2,9.2-5.1,12.2-8.9c3-3.8,4.5-7.8,4.5-12.3c0-4.4-1.5-8.5-4.5-12.3
	c-3-3.8-7.1-6.7-12.2-8.9c-5.2-2.2-10.8-3.3-16.9-3.3c-6.1,0-11.7,1.1-16.9,3.3c-5.2,2.2-9.2,5.1-12.2,8.9c-3,3.8-4.5,7.8-4.5,12.3
	c0,3.8,1.1,7.3,3.4,10.7c2.3,3.3,5.4,6.2,9.3,8.4c-0.3,0.8-0.6,1.5-1,2.1c-0.3,0.6-0.7,1.2-1.2,1.8c-0.5,0.6-0.8,1-1.1,1.4
	c-0.3,0.3-0.7,0.8-1.2,1.4c-0.6,0.6-0.9,1-1.1,1.2c0,0-0.1,0-0.2,0.2c-0.1,0.2-0.2,0.3-0.2,0.2c0,0-0.1,0.1-0.2,0.2
	c-0.1,0.2-0.2,0.3-0.2,0.3l-0.1,0.2c0,0.1-0.1,0.2-0.1,0.3c0,0.1,0,0.2,0,0.3s0,0.2,0,0.3c0.1,0.4,0.2,0.7,0.5,1
	c0.3,0.3,0.6,0.4,1,0.4h0.1c1.6-0.2,3-0.5,4.1-0.8c4.9-1.3,9.3-3.3,13.3-6.1c2.9,0.5,5.7,0.8,8.4,0.8C46.9,65.3,52.5,64.2,57.7,62z
	 M28.4,43.1c-1.7,0-3-1.4-3-3c0-1.7,1.4-3,3-3c1.7,0,3,1.4,3,3C31.5,41.8,30.1,43.1,28.4,43.1z M55.3,37.1c1.7,0,3,1.4,3,3
	c0,1.7-1.4,3-3,3c-1.7,0-3-1.4-3-3C52.2,38.4,53.6,37.1,55.3,37.1z M38.9,40.1c0-1.7,1.4-3,3-3c1.7,0,3,1.4,3,3c0,1.7-1.4,3-3,3
	C40.2,43.1,38.9,41.8,38.9,40.1z"/>
<path style="fill:#FFFFFF;" d="M89.3,63.8c2.3-3.3,3.4-6.9,3.4-10.7c0-3.9-1.2-7.6-3.6-11c-2.4-3.4-5.6-6.2-9.7-8.5
	c0.7,2.4,1.1,4.8,1.1,7.2c0,4.3-1.1,8.3-3.2,12.1c-2.1,3.8-5.2,7.2-9.2,10.1c-3.7,2.7-7.9,4.7-12.6,6.2c-4.7,1.4-9.6,2.1-14.7,2.1
	c-1,0-2.4-0.1-4.2-0.2c6.4,4.2,13.9,6.3,22.5,6.3c2.7,0,5.5-0.3,8.4-0.8c3.9,2.8,8.4,4.8,13.3,6.1c1.1,0.3,2.5,0.5,4.1,0.8
	c0.4,0,0.7-0.1,1-0.3c0.3-0.3,0.5-0.6,0.6-1c0-0.2,0-0.3,0-0.3c0,0,0-0.1,0-0.3c-0.1-0.2-0.1-0.3-0.1-0.3L86.4,81
	c0-0.1-0.1-0.2-0.2-0.3c-0.1-0.1-0.1-0.2-0.2-0.2c0,0-0.1-0.1-0.2-0.2c-0.1-0.1-0.2-0.2-0.2-0.2c-0.2-0.2-0.5-0.6-1.1-1.2
	c-0.6-0.6-1-1.1-1.2-1.4c-0.3-0.3-0.6-0.8-1.1-1.4c-0.5-0.6-0.9-1.2-1.2-1.8c-0.3-0.6-0.7-1.3-1-2.1C84,69.9,87.1,67.1,89.3,63.8z"
	/>
</svg>
