<?xml version="1.0" encoding="utf-8"?>
<!-- Generator: Adobe Illustrator 15.1.0, SVG Export Plug-In . SVG Version: 6.00 Build 0)  -->
<!DOCTYPE svg PUBLIC "-//W3C//DTD SVG 1.1//EN" "http://www.w3.org/Graphics/SVG/1.1/DTD/svg11.dtd">
<svg version="1.1" id="Layer_1" xmlns="http://www.w3.org/2000/svg" xmlns:xlink="http://www.w3.org/1999/xlink" x="0px" y="0px"
	 width="30px" height="30px" viewBox="0 0 30 30" style="enable-background:new 0 0 30 30;" xml:space="preserve">
<style type="text/css">
<![CDATA[
	.st0{fill:#A4AAB4;}
]]>
</style>
<g>
	<g>
		<polygon class="st0" points="21.8,9.5 21.8,16.6 25.4,13 		"/>
	</g>
	<g>
		<path class="st0" d="M15.7,3.3c-0.4-0.4-1.1-0.4-1.5,0l-1.5,1.5h4.6L15.7,3.3z"/>
	</g>
	<g>
		<polygon class="st0" points="8.1,9.5 5,12.6 4.5,13 8.1,16.6 		"/>
	</g>
	<g>
		<polygon class="st0" points="10.4,20.4 10.4,20.3 4.4,14.3 4.4,14.4 4.4,14.6 4.4,15 4.4,26.3 		"/>
	</g>
	<g>
		<path class="st0" d="M24.1,26.2L24.1,26.2L15.7,17.8c-0.4-0.399-1.1-0.399-1.5,0L5.6,26.4l0,0l-0.5,0.5h19.6l-0.2-0.2L24.1,26.2z"
			/>
	</g>
	<g>
		<polygon class="st0" points="19.5,20.3 19.6,20.4 19.6,20.4 25.5,26.3 25.5,14.6 25.5,14.4 25.5,14.2 		"/>
	</g>
	<g>
		<path class="st0" d="M13.6,17.2C14,16.8,14.5,16.6,15,16.6s1,0.2,1.4,0.601l0.3,0.3l2.1,2.1l2.101-2.1v-9L18.1,5.7H9v11.8l2.1,2.1
			L13.6,17.2z M11.8,8.5h6.4v0.9h-6.4V8.5z M11.8,11.3H16.4v0.9H11.8V11.3z M11.8,14h6.4v1h-6.4V14z"/>
	</g>
</g>
</svg>
