<svg  xmlns="http://www.w3.org/2000/svg" x="0px" y="0px" width="40px" height="40px" viewBox="0 0 40 40">
<path fill="none" stroke="#231F20"  d="M30.1,30.1c-5.3,5.3-14.1,5.3-19.4,0s-5.3-14.1,0-19.4 s14.1-5.3,19.4,0S35.4,24.7,30.1,30.1z"/>
<path fill="none" stroke="#231F20"  d="M30.6,30c0-4.7-5.1-5-6.4-5.6c-0.8-0.4-2-1.1-2-1.7
c0-0.3,0.1-0.5,0.3-0.6c1.7-0.8,2.2-3.6,2.3-3.6c0.6,0,1-1.3,1-2.1c0-0.7-0.2-0.7-0.6-0.9c0,0,0-0.1,0-0.1c0-2.2-2-4-4.4-4
c-2.4,0-4.5,1.8-4.5,4c0,0,0,0.1,0,0.1c-0.4,0.2-0.6,0.3-0.6,1c0,0.9,0.3,2.1,0.9,2.1c0.1,0,0.8,2.6,2.4,3.5
c0.1,0.1,0.3,0.2,0.3,0.5c0,0.7-1.1,1.4-2,1.8c-1.1,0.5-6.5,0.9-6.5,5.6"/>
</svg>
