<svg xmlns="http://www.w3.org/2000/svg" x="0px" y="0px" viewBox="0 0 284 92">
                    <path style="fill:#000;" d="M23.8,20.8H24l6.1,17.9H17.5L23.8,20.8z M18.5,8.8L0,57.5h10.9l3.8-10.9h18.2l3.7,10.9h11.1L29.5,8.8
H18.5z" />
                    <path style="fill:#000;" d="M79.2,23.9c-1.3-6.6-6.6-9.9-13.1-9.9c-11.1,0-15.8,9.1-15.8,18.9c0,10.6,4.7,19.5,15.9,19.5
c8.2,0,12.9-5.8,13.5-13.5h6.2c-1.2,11.6-8.4,18.7-20.2,18.7c-14.5,0-21.6-10.7-21.6-24.3c0-13.5,7.7-24.6,22.1-24.6
c9.7,0,17.8,5.2,19.2,15.2C85.4,23.9,79.2,23.9,79.2,23.9z" />
                    <path style="fill:#000;" d="M104.9,22.2c10.7,0,16.4,7.8,16.4,17.7c0,9.9-5.7,17.6-16.4,17.6s-16.4-7.8-16.4-17.6
C88.5,30,94.2,22.2,104.9,22.2 M104.9,52.7c5.8,0,10.5-4.6,10.5-12.7c0-8.2-4.7-12.8-10.5-12.8c-5.8,0-10.5,4.6-10.5,12.8
C94.4,48.1,99.1,52.7,104.9,52.7" />
                    <path style="fill:#000;" d="M123.9,23.8h5.2v5.4h0.1c2.4-4.2,6.1-6.1,11-6.1c8.9,0,11.6,5.1,11.6,12.3v22.2h-5.6V34.7
c0-4.1-2.6-6.8-6.9-6.8c-6.7,0-10,4.5-10,10.6v19.1h-5.6C123.9,57.5,123.9,23.8,123.9,23.8z" />
                    <path style="fill:#000;" d="M179.3,33.8c-0.8-4.2-3.8-6.7-8.4-6.7c-8,0-10.5,6.3-10.5,13.2c0,6.2,2.8,12.4,9.9,12.4
c5.4,0,8.6-3.1,9.3-8.2h5.7c-1.2,8.2-6.4,13.1-14.9,13.1c-10.3,0-15.8-7.2-15.8-17.2c0-10.1,5.2-18.1,15.9-18.1
c7.6,0,13.8,3.6,14.6,11.6L179.3,33.8L179.3,33.8z" />
                    <path style="fill:#000;" d="M218.2,46.1c-1.5,7.4-6.9,11.5-14.4,11.5c-10.8,0-15.9-7.4-16.2-17.8c0-10.1,6.7-17.6,15.9-17.6
c12,0,15.6,11.2,15.3,19.3h-25.3c-0.2,5.9,3.1,11.1,10.5,11.1c4.6,0,7.8-2.2,8.8-6.6L218.2,46.1L218.2,46.1z M212.9,36.7
c-0.3-5.3-4.3-9.5-9.7-9.5c-5.8,0-9.3,4.4-9.7,9.5H212.9z" />
                    <path style="fill:#000;" d="M221.3,23h5.6v4.6h0.1c1.8-3.7,6.1-5.4,10.8-5.4c10.4,0,15.6,8.2,15.6,17.8s-5.1,17.6-15.4,17.6
c-3.5,0-8.4-1.3-10.9-5.3h-0.1v17.4h-5.6V23z M237,27.1c-7.4,0-10.3,6.4-10.3,12.7c0,6.7,3,12.8,10.7,12.8c7.6,0,10.1-6.5,10.1-13.1
C247.4,33.3,244.1,27.1,237,27.1" />
                    <path style="fill:#000;" d="M263.6,23.8h6.7v4.9h-6.7v21c0,2.6,0.7,3,4.2,3h2.5v4.9h-4.3c-5.7,0-8-1.2-8-7.4V28.7h-5.7v-4.9h5.7
V13.6h5.6L263.6,23.8L263.6,23.8z" />
                    <path style="fill:#000;" d="M277.1,0c3.7,0,6.8,2.9,6.8,6.7c0,3.9-3.1,6.8-6.8,6.8c-3.7,0-6.8-2.9-6.8-6.8
C270.3,2.9,273.4,0,277.1,0 M277.1,12.5c3.1,0,5.5-2.5,5.5-5.8c0-3.2-2.4-5.7-5.5-5.7c-3.2,0-5.6,2.5-5.6,5.7
C271.6,10,274,12.5,277.1,12.5 M274.5,2.8h3c1.9,0,2.8,0.7,2.8,2.3c0,1.4-0.9,2-2.1,2.1l2.3,3.5h-1.3L277,7.3h-1.3v3.4h-1.2
L274.5,2.8L274.5,2.8z M275.7,6.3h1.3c1.1,0,2.1-0.1,2.1-1.3c0-1-0.9-1.2-1.7-1.2h-1.6L275.7,6.3L275.7,6.3z" />
                    <path style="fill:#000;" d="M88.7,72.3H90v2.1h-1.3V72.3z M88.7,76.3H90v10.5h-1.3V76.3z" />
                    <path style="fill:#000;" d="M92,76.3h1.3v1.8h0c0.5-1.3,1.9-2.1,3.4-2.1c3,0,3.9,1.6,3.9,4.1v6.8h-1.3v-6.6
c0-1.8-0.6-3.2-2.7-3.2c-2,0-3.3,1.6-3.3,3.6v6.2H92V76.3z" />
                    <path style="fill:#000;" d="M108.9,79.4c-0.1-1.6-1.3-2.3-2.8-2.3c-1.1,0-2.5,0.4-2.5,1.8c0,1.1,1.3,1.6,2.2,1.8l1.7,0.4
c1.5,0.2,3,1.1,3,2.9c0,2.3-2.3,3.2-4.2,3.2c-2.5,0-4.1-1.1-4.3-3.7h1.3c0.1,1.7,1.4,2.6,3.1,2.6c1.2,0,2.9-0.5,2.9-2
c0-1.2-1.1-1.6-2.3-1.9l-1.7-0.4c-1.7-0.4-2.9-1-2.9-2.8c0-2.1,2.1-3,4-3c2.1,0,3.8,1.1,3.9,3.4H108.9z" />
                    <path style="fill:#000;" d="M112,76.3h1.2v2h0c0.6-1.4,2.1-2.3,3.8-2.3c3.2,0,4.7,2.6,4.7,5.6c0,3-1.5,5.6-4.7,5.6
c-1.6,0-3.1-0.8-3.7-2.3h0v5.9H112V76.3z M117,77.1c-2.8,0-3.7,2.1-3.7,4.5c0,2.2,1,4.5,3.7,4.5c2.5,0,3.5-2.3,3.5-4.5
C120.5,79.4,119.5,77.1,117,77.1" />
                    <path style="fill:#000;" d="M123.3,72.3h1.3v2.1h-1.3V72.3z M123.3,76.3h1.3v10.5h-1.3V76.3z" />
                    <path style="fill:#000;"
                        d="M126.7,76.3h1.2v2.5h0c0.7-1.7,2.1-2.7,4-2.6v1.3c-2.3-0.1-3.9,1.6-3.9,3.8v5.6h-1.3V76.3z" />
                    <path style="fill:#000;" d="M133.1,81.9c0,1.9,1,4.1,3.5,4.1c1.9,0,2.9-1.1,3.3-2.7h1.3c-0.6,2.4-1.9,3.8-4.6,3.8
c-3.4,0-4.8-2.6-4.8-5.6c0-2.8,1.4-5.6,4.8-5.6c3.4,0,4.7,3,4.6,5.9L133.1,81.9L133.1,81.9z M139.9,80.8c-0.1-1.9-1.3-3.8-3.4-3.8
c-2.1,0-3.3,1.8-3.5,3.8C133.1,80.8,139.9,80.8,139.9,80.8z" />
                    <path style="fill:#000;" d="M151.8,86.9h-1.2v-2h0c-0.5,1.4-2.2,2.3-3.8,2.3c-3.2,0-4.7-2.6-4.7-5.6c0-3,1.5-5.6,4.7-5.6
c1.6,0,3.1,0.8,3.7,2.3h0v-6h1.3L151.8,86.9L151.8,86.9z M146.8,86.1c2.7,0,3.7-2.3,3.7-4.5c0-2.2-1-4.5-3.7-4.5
c-2.5,0-3.5,2.3-3.5,4.5C143.4,83.8,144.4,86.1,146.8,86.1" />
                    <path style="fill:#000;" d="M157,72.3h1.3v6h0c0.6-1.5,2.1-2.3,3.7-2.3c3.2,0,4.7,2.6,4.7,5.6c0,3-1.5,5.6-4.7,5.6
c-1.7,0-3.2-0.9-3.8-2.3h0v2H157L157,72.3L157,72.3z M162,77.1c-2.7,0-3.7,2.3-3.7,4.5s1,4.5,3.7,4.5c2.5,0,3.5-2.3,3.5-4.5
C165.5,79.4,164.5,77.1,162,77.1" />
                    <path style="fill:#000;" d="M166.7,76.3h1.4l3.5,9l3.2-9h1.3l-4.6,12.2c-0.7,1.8-1.2,2.3-2.8,2.3c-0.5,0-0.8,0-1-0.1v-1.1
c0.3,0.1,0.6,0.1,0.9,0.1c1.1,0,1.4-0.7,1.8-1.7l0.4-1.2L166.7,76.3z" />
                    <path style="fill:#000;" d="M180.9,81.9c0,1.9,1,4.1,3.5,4.1c1.9,0,2.9-1.1,3.3-2.7h1.3c-0.6,2.4-1.9,3.8-4.6,3.8
c-3.4,0-4.8-2.6-4.8-5.6c0-2.8,1.4-5.6,4.8-5.6c3.4,0,4.7,3,4.6,5.9L180.9,81.9L180.9,81.9z M187.7,80.8c-0.1-1.9-1.3-3.8-3.4-3.8
c-2.1,0-3.3,1.8-3.5,3.8C180.9,80.8,187.7,80.8,187.7,80.8z" />
                    <path style="fill:#000;" d="M193.2,81.4 189.4,76.3 191,76.3 194,80.3 197,76.3 198.6,76.3 194.8,81.4 198.9,86.9 
197.3,86.9 194,82.4 190.7,86.9 189.1,86.9z " />
                    <path style="fill:#000;" d="M199.7,76.3h1.2v2h0c0.6-1.4,2.1-2.3,3.8-2.3c3.2,0,4.7,2.6,4.7,5.6c0,3-1.5,5.6-4.7,5.6
c-1.6,0-3.1-0.8-3.7-2.3h0v5.9h-1.3L199.7,76.3L199.7,76.3z M204.7,77.1c-2.8,0-3.7,2.1-3.7,4.5c0,2.2,1,4.5,3.7,4.5
c2.5,0,3.5-2.3,3.5-4.5C208.2,79.4,207.2,77.1,204.7,77.1" />
                    <path style="fill:#000;" d="M211.8,81.9c0,1.9,1,4.1,3.5,4.1c1.9,0,2.9-1.1,3.3-2.7h1.3c-0.6,2.4-1.9,3.8-4.6,3.8
c-3.4,0-4.8-2.6-4.8-5.6c0-2.8,1.4-5.6,4.8-5.6c3.4,0,4.7,3,4.6,5.9L211.8,81.9L211.8,81.9z M218.6,80.8c-0.1-1.9-1.3-3.8-3.4-3.8
c-2.1,0-3.3,1.8-3.5,3.8C211.8,80.8,218.6,80.8,218.6,80.8z" />
                    <path style="fill:#000;"
                        d="M221.2,76.3h1.2v2.5h0c0.7-1.7,2.1-2.7,4-2.6v1.3c-2.3-0.1-3.9,1.6-3.9,3.8v5.6h-1.3V76.3z" />
                    <path style="fill:#000;" d="M227.3,72.3h1.3v2.1h-1.3V72.3z M227.3,76.3h1.3v10.5h-1.3V76.3z" />
                    <path style="fill:#000;" d="M231.4,81.9c0,1.9,1,4.1,3.5,4.1c1.9,0,2.9-1.1,3.3-2.7h1.3c-0.6,2.4-1.9,3.8-4.6,3.8
c-3.4,0-4.8-2.6-4.8-5.6c0-2.8,1.4-5.6,4.8-5.6c3.4,0,4.7,3,4.6,5.9L231.4,81.9L231.4,81.9z M238.2,80.8c-0.1-1.9-1.3-3.8-3.4-3.8
c-2.1,0-3.3,1.8-3.5,3.8C231.4,80.8,238.2,80.8,238.2,80.8z" />
                    <path style="fill:#000;" d="M240.8,76.3h1.3v1.8h0c0.5-1.3,1.9-2.1,3.4-2.1c3,0,3.9,1.6,3.9,4.1v6.8h-1.3v-6.6
c0-1.8-0.6-3.2-2.7-3.2c-2,0-3.3,1.6-3.3,3.6v6.2h-1.3V76.3z" />
                    <path style="fill:#000;" d="M258.8,79.6c-0.4-1.6-1.3-2.5-3-2.5c-2.5,0-3.7,2.2-3.7,4.5c0,2.2,1.2,4.5,3.7,4.5
c1.6,0,2.9-1.2,3.1-3h1.3c-0.3,2.5-2,4.1-4.4,4.1c-3.2,0-5-2.6-5-5.6c0-3,1.8-5.6,5-5.6c2.2,0,4,1.2,4.3,3.6H258.8z" />
                    <path style="fill:#000;" d="M262.3,81.9c0,1.9,1,4.1,3.5,4.1c1.9,0,2.9-1.1,3.3-2.7h1.3c-0.6,2.4-1.9,3.8-4.6,3.8
c-3.4,0-4.8-2.6-4.8-5.6c0-2.8,1.4-5.6,4.8-5.6c3.4,0,4.7,3,4.6,5.9L262.3,81.9L262.3,81.9z M269.1,80.8c-0.1-1.9-1.3-3.8-3.4-3.8
c-2.1,0-3.3,1.8-3.5,3.8C262.3,80.8,269.1,80.8,269.1,80.8z" />
                </svg>