 <svg 
 xmlns="http://www.w3.org/2000/svg" 
 x="0px" y="0px" class="playback-icons"  viewBox="0 0 30 30">
                                    <g class="pause-icon">
                                        <path d="M6.1,5h4.7C11.5,5,12,5.5,12,6.1v17.7c0,0.6-0.5,1.1-1.1,1.1H6.1C5.5,25,5,24.5,5,23.9V6.1C5,5.5,5.5,5,6.1,5z 
M19.1,5h4.7C24.5,5,25,5.5,25,6.1v17.7c0,0.6-0.5,1.1-1.1,1.1h-4.7c-0.6,0-1.1-0.5-1.1-1.1V6.1C18,5.5,18.5,5,19.1,5z" />
                                    </g>
                                    <g class="play-icon display-none">
                                        <path
                                            d="M5,6.2v17.6c0,0.6,0.6,0.9,1.1,0.7l17.6-8.8c0.6-0.3,0.6-1.1,0-1.4L6.1,5.5C5.6,5.3,5,5.7,5,6.2z" />
                                    </g>
                                </svg>