  <svg xmlns="http://www.w3.org/2000/svg" x="0" y="0" width="50" height="50" viewBox="0 0 50 50">
                    <path fill="currentColor"
                        d="M34.5 31s-2.5-1.6-3.6-2.4c-.4-.3-.9-.4-1.2-.4-.6 0-1 .3-1 .3s-.2.2-.7.6c-.5.4-1.1.3-1.5-.2-.7-.6-4.2-5-5.3-6.5-.2-.3-.3-.6-.3-.9.1-.6.8-1 1.1-1.2l.1-.1c.7-.5.8-1.3.6-1.9-.2-.4-1.5-3.5-1.7-3.8-.3-.2-.6-.7-1.3-.7-.5 0-1.6.2-2.4.8H17c-.7.5-2 1.3-2 3.2 0 2.4 1.7 5.9 5.4 10.8 3.8 5.2 8.4 7.7 10.4 7.7 1.7 0 3.5-2.1 3.9-3.2.6-1 .2-1.8-.2-2.1z" />
                </svg>