<?xml version="1.0" encoding="utf-8"?>
<!-- Generator: Adobe Illustrator 23.0.1, SVG Export Plug-In . SVG Version: 6.00 Build 0)  -->
<svg version="1.1" id="Layer_1" xmlns="http://www.w3.org/2000/svg" xmlns:xlink="http://www.w3.org/1999/xlink" x="0px" y="0px"
	 width="60px" height="60px" viewBox="0 0 60 60" style="enable-background:new 0 0 60 60;" xml:space="preserve">
<g>
	<path d="M23,49.3H5.2V36.5c0-5.2,0.5-9.2,1.4-12.2s2.6-5.7,5-8s5.6-4.2,9.4-5.6l3.5,7.4c-3.6,1.2-6.1,2.8-7.7,5s-2.4,4.9-2.4,8.4
		H23V49.3z M52.8,49.3H34.9V36.5c0-5.2,0.5-9.3,1.4-12.3s2.6-5.6,5.1-8s5.6-4.2,9.4-5.6l3.5,7.4c-3.6,1.2-6.1,2.8-7.7,5
		s-2.4,4.9-2.4,8.4h8.6V49.3z"/>
</g>
</svg>
