<?xml version="1.0" encoding="utf-8"?>
<!-- Generator: Adobe Illustrator 23.0.1, SVG Export Plug-In . SVG Version: 6.00 Build 0)  -->
<svg version="1.1" id="bold" xmlns="http://www.w3.org/2000/svg" xmlns:xlink="http://www.w3.org/1999/xlink" x="0px" y="0px"
	 width="60px" height="60px" viewBox="0 0 60 60" style="enable-background:new 0 0 60 60;" xml:space="preserve">
<path d="M31,6.9h-2.6c-0.8-2.7-3.3-4.7-6.3-4.7s-5.5,2-6.3,4.7h-2.6c-1,0-1.8,0.8-1.8,1.8v3.6c0,2.3,1.9,4.1,4.1,4.1h13
	c2.3,0,4.1-1.9,4.1-4.1V8.7C32.8,7.7,32,6.9,31,6.9z"/>
<path d="M35.8,9.2h-0.6v3c0,3.6-2.9,6.5-6.5,6.5h-13c-3.6,0-6.5-2.9-6.5-6.5v-3H8.5C4.9,9.2,2,12.2,2,15.8v29.6
	c0,3.6,2.9,6.5,6.5,6.5H26l0.5-2.9c0.2-1.3,0.9-2.5,1.8-3.5l1.9-1.9H10.9c-1,0-1.8-0.8-1.8-1.8c0-1,0.8-1.8,1.8-1.8h22.5
	c0.1,0,0.2,0,0.3,0h0l8.5-8.5V15.8C42.3,12.2,39.4,9.2,35.8,9.2L35.8,9.2z M33.4,35.9H10.9c-1,0-1.8-0.8-1.8-1.8
	c0-1,0.8-1.8,1.8-1.8h22.5c1,0,1.8,0.8,1.8,1.8C35.2,35.1,34.4,35.9,33.4,35.9z M33.4,28.2H10.9c-1,0-1.8-0.8-1.8-1.8
	c0-1,0.8-1.8,1.8-1.8h22.5c1,0,1.8,0.8,1.8,1.8C35.2,27.4,34.4,28.2,33.4,28.2z"/>
<path d="M31.7,59c-0.5,0-0.9-0.2-1.3-0.5c-0.4-0.4-0.6-1-0.5-1.6l1.3-7.1c0.1-0.4,0.2-0.7,0.5-0.9l17.6-17.6
	c2.2-2.2,4.3-1.6,5.4-0.4l2.9,2.9c1.6,1.6,1.6,4.2,0,5.9L40.1,57.2c-0.3,0.3-0.6,0.4-0.9,0.5L32,59C31.9,59,31.8,59,31.7,59L31.7,59
	z M38.8,56L38.8,56L38.8,56z"/>
</svg>
