<?xml version="1.0" encoding="utf-8"?>
<!-- Generator: Adobe Illustrator 15.1.0, SVG Export Plug-In . SVG Version: 6.00 Build 0)  -->
<!DOCTYPE svg PUBLIC "-//W3C//DTD SVG 1.1//EN" "http://www.w3.org/Graphics/SVG/1.1/DTD/svg11.dtd">
<svg version="1.1" id="Layer_1" xmlns="http://www.w3.org/2000/svg" xmlns:xlink="http://www.w3.org/1999/xlink" x="0px" y="0px"
	 width="30px" height="30px" viewBox="0 0 30 30" style="enable-background:new 0 0 30 30;" xml:space="preserve">
<style type="text/css">
<![CDATA[
	.st0{fill:#FFFFFF;}
]]>
</style>
<g>
	<polygon class="st0" points="11.524,12.96 7.031,8.468 7.031,11.484 6.406,12.109 5.625,12.109 5,11.484 5,5.625 5.625,5 11.484,5 
		12.109,5.625 12.109,6.406 11.484,7.031 8.468,7.031 12.96,11.524 12.96,12.408 12.408,12.96 	"/>
	<polygon class="st0" points="17.592,12.96 17.04,12.408 17.04,11.524 21.532,7.031 18.516,7.031 17.891,6.406 17.891,5.625 
		18.516,5 24.375,5 25,5.625 25,11.484 24.375,12.109 23.594,12.109 22.969,11.484 22.969,8.468 18.475,12.96 	"/>
	<polygon class="st0" points="5.625,25 5,24.375 5,18.516 5.625,17.891 6.406,17.891 7.031,18.516 7.031,21.532 11.524,17.04 
		12.408,17.04 12.96,17.592 12.96,18.475 8.468,22.969 11.484,22.969 12.109,23.594 12.109,24.375 11.484,25 	"/>
	<polygon class="st0" points="18.516,25 17.891,24.375 17.891,23.594 18.516,22.969 21.532,22.969 17.04,18.475 17.04,17.592 
		17.592,17.04 18.475,17.04 22.969,21.532 22.969,18.516 23.594,17.891 24.375,17.891 25,18.516 25,24.375 24.375,25 	"/>
</g>
</svg>
